<?xml version="1.0" encoding="utf-8"?>
<!-- Generator: Adobe Illustrator 27.2.0, SVG Export Plug-In . SVG Version: 6.00 Build 0)  -->
<svg version="1.1" id="Layer_1" xmlns="http://www.w3.org/2000/svg" xmlns:xlink="http://www.w3.org/1999/xlink" x="0px" y="0px"
	 viewBox="0 0 512.5 543.6" style="enable-background:new 0 0 512.5 543.6;" xml:space="preserve">
<style type="text/css">
	.st0{clip-path:url(#SVGID_00000144304235406256540080000011828430319307285379_);}
	.st1{fill:#FFB74A;}
	.st2{fill:#F8FA95;}
	.st3{fill:#FFB03A;}
	.st4{fill:#F4971C;}
	.st5{clip-path:url(#SVGID_00000010279681559193450070000017348752688360243333_);}
	.st6{fill:#F94848;}
	.st7{fill:#E23D3D;}
	.st8{fill:#FC8181;}
	.st9{fill:#C7F492;}
	.st10{fill:#A3E261;}
	.st11{fill:#B25719;}
	.st12{fill:none;}
	.st13{fill:#FFFFFF;}
	.st14{font-family:'Lato-Black';}
	.st15{font-size:100px;}
	.st16{fill:#4F4C4D;}
</style>
<g>
	<defs>
		<polygon id="SVGID_1_" points="148.5,-290.7 350,338.3 148.5,967.3 795.2,966.3 795.2,-291.7 		"/>
	</defs>
	<clipPath id="SVGID_00000152226662607364209070000009979227079130355389_">
		<use xlink:href="#SVGID_1_"  style="overflow:visible;"/>
	</clipPath>
	<g style="clip-path:url(#SVGID_00000152226662607364209070000009979227079130355389_);">
		<ellipse class="st1" cx="305.8" cy="337.3" rx="194" ry="192"/>
		<ellipse class="st2" cx="305.8" cy="337.3" rx="178.5" ry="176.7"/>
		<g>
			<path class="st3" d="M329.3,316.1L434.7,256c5.7-3.3,7.2-10.7,3.4-16.1c-26.3-35-66.6-59.1-112.9-64.4c-6.5-0.8-12.4,4.3-12.4,11
				v120.4C312.5,315.1,321.8,320.5,329.3,316.1z"/>
			<path class="st3" d="M336,346.8l105.4,60.1c5.7,3.3,13.2,0.8,15.8-5.1c8.5-19.7,13.4-41.7,13.4-64.4c0-23-4.9-44.7-13.4-64.4
				c-2.6-5.9-10.1-8.4-15.8-5.1L336,327.9C328.5,332,328.5,342.7,336,346.8z"/>
			<path class="st3" d="M299.1,306.6V186.5c0-6.6-5.7-11.8-12.4-11c-46,5.4-86.3,29.4-112.9,64.4c-3.9,5.4-2.6,12.8,3.4,16.1
				l105.4,60.1C289.8,320.5,299.1,315.1,299.1,306.6z"/>
			<path class="st3" d="M312.5,368v120.4c0,6.6,5.7,11.8,12.4,11c46-5.4,86.3-29.4,112.9-64.4c3.9-5.4,2.6-12.8-3.4-16.1
				l-105.1-60.3C321.8,354.2,312.5,359.6,312.5,368z"/>
			<path class="st3" d="M282.3,358.5l-105.4,60.1c-5.7,3.3-7.2,10.7-3.4,16.1c26.3,35,66.6,59.1,112.9,64.4
				c6.5,0.8,12.4-4.3,12.4-11V368C299.1,359.6,289.8,354.2,282.3,358.5z"/>
			<path class="st3" d="M275.6,327.9l-105.4-60.1c-5.7-3.3-13.2-0.8-15.8,5.1c-8.5,19.7-13.4,41.7-13.4,64.4
				c0,23,4.9,44.7,13.4,64.4c2.6,5.9,10.1,8.4,15.8,5.1l105.4-60.1C283.1,342.7,283.1,332,275.6,327.9z"/>
		</g>
		<g>
			<path class="st4" d="M356.7,471c0,0,3.4-14.3-7-25.6c-10.6-11.2-9.8-19.4-9.8-19.4s-5.2,7.2,2.8,21.5
				C346.6,454.4,358.7,464.4,356.7,471z"/>
			<path class="st4" d="M417.9,446.8c0,0-2.6-14.6-16.8-20.5c-14.2-6.1-16.8-14.1-16.8-14.1s-1.8,8.7,11.1,18.4
				C401.9,435.5,416.8,439.9,417.9,446.8z"/>
			<path class="st4" d="M347.6,431.9c0,0,2.6-14.6-8.8-25.1C327.7,396.4,328,388,328,388s-4.6,7.4,4.1,21.2
				C336.5,416.1,349.2,425,347.6,431.9z"/>
			<path class="st4" d="M348.1,386.9c0,0,0-8.7-7.5-13.8c-7.5-5.1-8.3-10-8.3-10s-2.1,4.9,4.4,12
				C340.4,378.7,348.4,382.8,348.1,386.9z"/>
			<path class="st4" d="M348.7,487.7c0,0,2.8-8.2-2.3-15.3c-5.4-7.2-4.4-12-4.4-12s-3.4,3.8,0.3,12.8
				C344,477.4,350.5,483.8,348.7,487.7z"/>
			<path class="st4" d="M400.3,465.9c0,0-0.8-8.7-8.8-12.8c-8-4.3-9-8.9-9-8.9s-1.5,4.9,5.7,11.2
				C391.5,458.8,400.3,461.8,400.3,465.9z"/>
			<path class="st4" d="M370.1,477.9c0,0,2.3-8.4-3.6-15.1c-5.9-6.6-5.4-11.8-5.4-11.8s-3.1,4.1,1.3,12.5
				C364.4,468,371.4,473.9,370.1,477.9z"/>
			<path class="st4" d="M361.6,418.6c0,0,2.3-8.4-3.6-15.1c-5.9-6.6-5.4-11.8-5.4-11.8s-3.1,4.1,1.3,12.5
				C355.9,408.9,362.9,414.8,361.6,418.6z"/>
			<path class="st4" d="M329.3,492.8c0,0,8.8-12,3.4-26.3c-5.4-14.3-1.5-21.7-1.5-21.7s-7.5,4.9-5.7,20.7
				C326.4,473.9,333.7,487.4,329.3,492.8z"/>
			<path class="st4" d="M383.5,472.3c0,0,1.8-14.6-9.8-24.5c-11.6-10-11.9-18.4-11.9-18.4s-4.1,7.7,5.2,21
				C371.6,457,384.8,465.4,383.5,472.3z"/>
			<path class="st4" d="M431.6,434.7c0,0-3.6-14.3-18.3-19.4c-14.5-5.1-17.8-12.8-17.8-12.8s-1,8.7,12.4,17.6
				C415,424.5,430.3,427.6,431.6,434.7z"/>
			<path class="st4" d="M347.4,415.3c0,0,3.4-14.3-7-25.6c-10.6-11.2-9.8-19.4-9.8-19.4s-5.2,7.2,2.8,21.5
				C337.3,398.9,349.4,408.7,347.4,415.3z"/>
			<path class="st4" d="M320.5,438.1c0,0,8.5-12,2.8-26.3c-5.7-14.3-1.8-21.7-1.8-21.7s-7.5,4.9-5.2,21
				C317.1,419.1,324.9,432.4,320.5,438.1z"/>
			<path class="st4" d="M396.7,447.8c0,0-1.5-14.6-15.2-21.7c-13.7-7.2-15.8-15.1-15.8-15.1s-2.3,8.4,9.8,19.2
				C381.7,435.8,396.4,440.9,396.7,447.8z"/>
			<path class="st4" d="M387.1,409.9c0,0-2.8-14.3-17-20.5c-14.2-5.9-17-13.8-17-13.8s-1.5,8.7,11.4,18.4
				C371.1,398.9,386.1,402.8,387.1,409.9z"/>
			<path class="st4" d="M255.4,474.1c0,0-3.4-14.3,7-25.6c10.6-11.2,9.8-19.4,9.8-19.4s5.2,7.2-2.8,21.5
				C265.5,457.8,253.3,467.5,255.4,474.1z"/>
			<path class="st4" d="M194.2,449.8c0,0,2.6-14.6,16.8-20.5c14.2-6.1,16.8-14.1,16.8-14.1s1.8,8.7-11.1,18.4
				C210.2,438.8,195.2,442.9,194.2,449.8z"/>
			<path class="st4" d="M264.5,435.3c0,0-2.6-14.6,8.8-25.1c11.1-10.5,10.8-18.9,10.8-18.9s4.6,7.4-4.1,21.2
				C275.6,419.4,262.9,428.3,264.5,435.3z"/>
			<path class="st4" d="M263.9,390.3c0,0,0-8.7,7.5-13.8s8.3-10,8.3-10s2.1,4.9-4.4,12C271.7,382.1,263.7,385.9,263.9,390.3z"/>
			<path class="st4" d="M263.4,490.7c0,0-2.8-8.2,2.3-15.3c5.4-7.2,4.4-12,4.4-12s3.4,3.8-0.3,12.8
				C268.1,480.5,261.6,486.9,263.4,490.7z"/>
			<path class="st4" d="M211.8,469c0,0,0.8-8.7,8.8-12.8c8-4.3,9-8.9,9-8.9s1.5,4.9-5.7,11.2C220.5,461.8,211.8,464.9,211.8,469z"/>
			<path class="st4" d="M242,481c0,0-2.3-8.4,3.6-15.1c5.9-6.6,5.4-11.8,5.4-11.8s3.1,4.1-1.3,12.5C247.7,471,240.7,477.2,242,481z"
				/>
			<path class="st4" d="M250.5,422c0,0-2.3-8.4,3.6-15.1c5.9-6.6,5.4-11.8,5.4-11.8s3.1,4.1-1.3,12.5
				C256.2,412,249.2,417.9,250.5,422z"/>
			<path class="st4" d="M282.8,496.1c0,0-8.8-12-3.4-26.3c5.4-14.3,1.5-21.7,1.5-21.7s7.5,4.9,5.7,20.7
				C285.6,476.9,278.4,490.5,282.8,496.1z"/>
			<path class="st4" d="M228.6,475.6c0,0-1.8-14.6,9.8-24.5c11.6-10,11.9-18.4,11.9-18.4s4.1,7.7-5.2,21
				C240.4,460.3,227.3,468.5,228.6,475.6z"/>
			<path class="st4" d="M180.5,437.8c0,0,3.6-14.3,18.3-19.4c14.5-5.1,17.8-12.8,17.8-12.8s1,8.7-12.4,17.6
				C197,427.8,181.8,430.9,180.5,437.8z"/>
			<path class="st4" d="M264.7,418.6c0,0-3.4-14.3,7-25.6c10.6-11.2,9.8-19.4,9.8-19.4s5.2,7.2-2.8,21.5
				C274.5,402,262.6,411.7,264.7,418.6z"/>
			<path class="st4" d="M291.6,441.1c0,0-8.5-12-2.8-26.3c5.7-14.3,1.8-21.7,1.8-21.7s7.5,4.9,5.2,21
				C294.9,422.2,287.2,435.5,291.6,441.1z"/>
			<path class="st4" d="M215.4,451.1c0,0,1.5-14.6,15.2-21.7c13.7-7.2,15.8-15.1,15.8-15.1s2.3,8.4-9.8,19.2
				C230.4,438.8,215.6,443.9,215.4,451.1z"/>
			<path class="st4" d="M224.9,413c0,0,2.8-14.3,17-20.5c14.2-5.9,17-13.8,17-13.8s1.5,8.7-11.4,18.4C241,402,226,406.1,224.9,413z"
				/>
			<path class="st4" d="M356.7,202.3c0,0,3.4,14.3-7,25.6c-10.6,11.2-9.8,19.4-9.8,19.4s-5.2-7.2,2.8-21.5
				C346.6,218.7,358.7,209,356.7,202.3z"/>
			<path class="st4" d="M417.9,226.6c0,0-2.6,14.6-16.8,20.5c-14.2,6.1-16.8,14.1-16.8,14.1s-1.8-8.7,11.1-18.4
				C401.9,237.6,416.8,233.5,417.9,226.6z"/>
			<path class="st4" d="M347.6,241.2c0,0,2.6,14.6-8.8,25.1c-11.1,10.5-10.8,18.9-10.8,18.9s-4.6-7.4,4.1-21.2
				C336.5,257,349.2,248.1,347.6,241.2z"/>
			<path class="st4" d="M348.1,286.2c0,0,0,8.7-7.5,13.8c-7.5,5.1-8.3,10-8.3,10s-2.1-4.9,4.4-12
				C340.4,294.4,348.4,290.3,348.1,286.2z"/>
			<path class="st4" d="M348.7,185.7c0,0,2.8,8.2-2.3,15.3c-5.4,7.2-4.4,12-4.4,12s-3.4-3.8,0.3-12.8
				C344,195.9,350.5,189.6,348.7,185.7z"/>
			<path class="st4" d="M400.3,207.2c0,0-0.8,8.7-8.8,12.8c-8,4.3-9,8.9-9,8.9s-1.5-4.9,5.7-11.2
				C391.5,214.6,400.3,211.5,400.3,207.2z"/>
			<path class="st4" d="M370.1,195.4c0,0,2.3,8.4-3.6,15.1c-5.9,6.6-5.4,11.8-5.4,11.8s-3.1-4.1,1.3-12.5
				C364.4,205.4,371.4,199.3,370.1,195.4z"/>
			<path class="st4" d="M361.6,254.5c0,0,2.3,8.4-3.6,15.1c-5.9,6.6-5.4,11.8-5.4,11.8s-3.4-4.1,1-12.5
				C355.9,264.5,362.9,258.6,361.6,254.5z"/>
			<path class="st4" d="M329.3,180.3c0,0,8.8,12,3.4,26.3c-5.4,14.3-1.5,21.7-1.5,21.7s-7.5-4.9-5.7-20.7
				C326.4,199.5,333.7,186,329.3,180.3z"/>
			<path class="st4" d="M383.5,200.8c0,0,1.8,14.6-9.8,24.5c-11.6,10-11.9,18.4-11.9,18.4s-4.1-7.7,5.2-21
				C371.6,216.1,384.8,207.7,383.5,200.8z"/>
			<path class="st4" d="M431.6,238.6c0,0-3.6,14.3-18.3,19.4c-14.5,5.1-17.8,12.8-17.8,12.8s-1-8.7,12.4-17.6
				C415,248.6,430.3,245.5,431.6,238.6z"/>
			<path class="st4" d="M347.4,257.8c0,0,3.4,14.3-7,25.6c-10.6,11.2-9.8,19.4-9.8,19.4s-5.2-7.2,2.8-21.5
				C337.3,274.4,349.4,264.7,347.4,257.8z"/>
			<path class="st4" d="M320.5,235.3c0,0,8.5,12,2.8,26.3c-5.7,14.3-1.8,21.7-1.8,21.7s-7.5-4.9-5.2-21
				C317.1,254.2,324.9,240.7,320.5,235.3z"/>
			<path class="st4" d="M396.7,225.3c0,0-1.5,14.6-15.2,21.7c-13.7,7.2-15.8,15.1-15.8,15.1s-2.3-8.4,9.8-19.2
				C381.7,237.6,396.4,232.5,396.7,225.3z"/>
			<path class="st4" d="M387.1,263.4c0,0-2.8,14.3-17,20.5c-14.2,5.9-17,13.8-17,13.8s-1.5-8.7,11.4-18.4
				C371.1,274.2,386.1,270.3,387.1,263.4z"/>
			<path class="st4" d="M162.2,364.7c0,0,10.6-10.2,25.8-7.2c15,3.1,22-1.8,22-1.8s-3.6,7.9-19.9,8.4
				C181.5,364.9,167.1,359.6,162.2,364.7z"/>
			<path class="st4" d="M151.8,300.3c0,0,13.9-5.1,26.3,3.8c12.4,8.9,20.7,7.2,20.7,7.2s-6.7,5.9-21.7,0
				C169.7,308.2,158.6,297.4,151.8,300.3z"/>
			<path class="st4" d="M200.7,352.4c0,0,11.4-9.5,26.1-5.4c14.7,4.1,22-0.3,22-0.3s-4.1,7.7-20.4,7.2
				C220,353.7,205.8,347.6,200.7,352.4z"/>
			<path class="st4" d="M239.4,328.9c0,0,7.5-4.3,15.8-0.8c8.3,3.8,12.9,1.8,12.9,1.8s-3.1,4.1-12.7,2.3
				C250.5,331.4,242.8,326.6,239.4,328.9z"/>
			<path class="st4" d="M151.8,380c0,0,5.7-6.6,14.5-5.9c9,0.8,12.7-2.6,12.7-2.6s-1.5,4.9-11.1,6.4
				C163.2,378.7,154.2,376.7,151.8,380z"/>
			<path class="st4" d="M144.1,325.1c0,0,8-3.6,15.8,1c7.7,4.6,12.4,3.1,12.4,3.1s-3.6,3.8-12.7,1
				C154.9,328.6,147.7,323,144.1,325.1z"/>
			<path class="st4" d="M149.3,356.8c0,0,6.2-6.1,15-4.6c9,1.5,12.9-1.3,12.9-1.3s-2.1,4.9-11.6,5.4
				C160.6,356.5,152.1,353.7,149.3,356.8z"/>
			<path class="st4" d="M205,334c0,0,6.2-6.1,15-4.6c9,1.5,12.9-1.3,12.9-1.3s-2.1,4.9-11.6,5.4C216.4,333.5,207.9,330.7,205,334z"
				/>
			<path class="st4" d="M157.3,399.2c0,0,5.9-13.6,21.2-16.4c15.2-2.8,19.6-10,19.6-10s-0.3,8.7-15.2,15.6
				C175.3,392,159.6,392.6,157.3,399.2z"/>
			<path class="st4" d="M147.2,342.7c0,0,11.9-8.9,26.3-4.3c14.7,4.9,22,0.5,22,0.5s-4.4,7.7-20.7,6.4
				C166.6,344.7,152.6,338.1,147.2,342.7z"/>
			<path class="st4" d="M155.5,282.4c0,0,14.2-4.1,26.1,5.6c11.9,9.7,20.1,8.4,20.1,8.4s-7,5.4-21.7-1.5
				C172.5,291.3,162.2,280.1,155.5,282.4z"/>
			<path class="st4" d="M215.1,344c0,0,10.6-10.2,25.8-7.2c15,3.1,22-1.8,22-1.8s-3.6,7.9-19.9,8.4C234.5,344.2,220,338.9,215.1,344
				z"/>
			<path class="st4" d="M209.2,378.7c0,0,6.2-13.3,21.4-15.9c15.2-2.6,19.6-9.5,19.6-9.5s-0.5,8.7-15.5,15.1
				C227.5,371.6,211.8,372.1,209.2,378.7z"/>
			<path class="st4" d="M161.7,318.7c0,0,13.4-6.1,26.6,2c13.2,7.9,21.2,5.6,21.2,5.6s-6.2,6.4-21.7,1.5
				C180,325.3,168.1,315.3,161.7,318.7z"/>
			<path class="st4" d="M199.6,307.7c0,0,13.9-4.9,26.3,4.1c12.4,8.9,20.7,7.4,20.7,7.4s-6.7,5.9-21.7-0.5
				C217.2,315.6,206.1,304.9,199.6,307.7z"/>
			<path class="st4" d="M449.9,311.5c0,0-10.6,10.2-25.8,7.2c-15-3.1-22,1.8-22,1.8s3.6-7.9,19.9-8.4
				C430.5,311.5,445,316.9,449.9,311.5z"/>
			<path class="st4" d="M460.2,376.2c0,0-13.9,5.1-26.3-3.8c-12.4-8.9-20.7-7.2-20.7-7.2s6.7-5.9,21.7,0
				C442.4,368.3,453.5,379,460.2,376.2z"/>
			<path class="st4" d="M411.4,324c0,0-11.4,9.5-26.1,5.4c-14.7-4.1-22,0.3-22,0.3s4.1-7.7,20.4-7.2
				C392.1,322.8,406.3,328.9,411.4,324z"/>
			<path class="st4" d="M372.7,347.6c0,0-7.5,4.3-15.8,0.8c-8.3-3.8-12.9-1.8-12.9-1.8s3.1-4.1,12.7-2.3
				C361.6,345,369.3,349.9,372.7,347.6z"/>
			<path class="st4" d="M460.2,296.4c0,0-5.7,6.6-14.5,5.9c-9-0.8-12.7,2.6-12.7,2.6s1.5-4.9,11.1-6.4
				C448.9,297.7,457.9,299.7,460.2,296.4z"/>
			<path class="st4" d="M468,351.4c0,0-8,3.6-15.8-1c-7.7-4.6-12.4-3.1-12.4-3.1s3.6-3.8,12.7-1C457.1,347.8,464.4,353.4,468,351.4z
				"/>
			<path class="st4" d="M462.8,319.7c0,0-6.2,6.1-15,4.6c-9-1.5-12.9,1.3-12.9,1.3s2.1-4.9,11.6-5.4
				C451.5,319.9,460,322.8,462.8,319.7z"/>
			<path class="st4" d="M407,342.4c0,0-6.2,6.1-15,4.6c-9-1.5-12.9,1.3-12.9,1.3s2.1-4.9,11.6-5.4
				C395.7,342.7,404.2,345.8,407,342.4z"/>
			<path class="st4" d="M454.8,277.2c0,0-5.9,13.6-21.2,16.4c-15.2,2.8-19.6,10-19.6,10s0.3-8.7,15.2-15.6
				C436.7,284.4,452.5,283.9,454.8,277.2z"/>
			<path class="st4" d="M464.9,333.7c0,0-11.9,8.9-26.3,4.3c-14.7-4.9-22-0.5-22-0.5s4.4-7.7,20.7-6.4
				C445.5,331.7,459.5,338.4,464.9,333.7z"/>
			<path class="st4" d="M456.6,394.1c0,0-14.2,4.1-26.1-5.6c-11.9-9.7-20.1-8.4-20.1-8.4s7-5.4,21.7,1.5
				C439.6,385.1,449.9,396.4,456.6,394.1z"/>
			<path class="st4" d="M397,332.2c0,0-10.6,10.2-25.8,7.2c-15-3.1-22,1.8-22,1.8s3.6-7.9,19.9-8.4
				C377.3,332.2,392.1,337.6,397,332.2z"/>
			<path class="st4" d="M402.9,297.7c0,0-6.2,13.3-21.4,15.9c-15.2,2.6-19.6,9.5-19.6,9.5s0.5-8.7,15.5-15.1
				C384.6,304.6,400.3,304.3,402.9,297.7z"/>
			<path class="st4" d="M450.4,357.8c0,0-13.4,6.1-26.6-2c-13.2-7.9-21.2-5.6-21.2-5.6s6.2-6.4,21.7-1.5
				C432.1,351.1,444,361.1,450.4,357.8z"/>
			<path class="st4" d="M412.5,368.8c0,0-13.9,4.9-26.3-4.1c-12.4-8.9-20.7-7.4-20.7-7.4s6.7-5.9,21.7,0.5
				C394.9,360.9,406,371.6,412.5,368.8z"/>
			<path class="st4" d="M255.4,205.4c0,0-3.4,14.3,7,25.6c10.6,11.2,9.8,19.4,9.8,19.4s5.2-7.2-2.8-21.5
				C265.5,221.8,253.3,212,255.4,205.4z"/>
			<path class="st4" d="M194.2,229.7c0,0,2.6,14.6,16.8,20.5c14.2,6.1,16.8,14.1,16.8,14.1s1.8-8.7-11.1-18.4
				C210.2,240.9,195.2,236.6,194.2,229.7z"/>
			<path class="st4" d="M264.5,244.3c0,0-2.6,14.6,8.8,25.1c11.1,10.5,10.8,18.9,10.8,18.9s4.6-7.4-4.1-21.2
				C275.6,260.1,262.9,251.2,264.5,244.3z"/>
			<path class="st4" d="M263.9,289.3c0,0,0,8.7,7.5,13.8c7.5,5.1,8.3,10,8.3,10s2.1-4.9-4.4-12C271.7,297.7,263.7,293.6,263.9,289.3
				z"/>
			<path class="st4" d="M263.4,188.8c0,0-2.8,8.2,2.3,15.3c5.4,7.2,4.4,12,4.4,12s3.4-3.8-0.3-12.8
				C268.1,199,261.6,192.6,263.4,188.8z"/>
			<path class="st4" d="M211.8,210.5c0,0,0.8,8.7,8.8,12.8c8,4.3,9,8.9,9,8.9s1.5-4.9-5.7-11.2C220.5,217.7,211.8,214.6,211.8,210.5
				z"/>
			<path class="st4" d="M242,198.5c0,0-2.3,8.4,3.6,15.1c5.9,6.6,5.4,11.8,5.4,11.8s3.1-4.1-1.3-12.5
				C247.7,208.5,240.7,202.6,242,198.5z"/>
			<path class="st4" d="M250.5,257.6c0,0-2.3,8.4,3.6,15.1s5.4,11.8,5.4,11.8s3.1-4.1-1.3-12.5C256.2,267.5,249.2,261.6,250.5,257.6
				z"/>
			<path class="st4" d="M282.8,183.4c0,0-8.8,12-3.4,26.3c5.4,14.3,1.5,21.7,1.5,21.7s7.5-4.9,5.7-20.7
				C285.6,202.6,278.4,189,282.8,183.4z"/>
			<path class="st4" d="M228.6,203.9c0,0-1.8,14.6,9.8,24.5c11.6,10,11.9,18.4,11.9,18.4s4.1-7.7-5.2-21
				C240.4,219.2,227.3,211,228.6,203.9z"/>
			<path class="st4" d="M180.5,241.7c0,0,3.6,14.3,18.3,19.4c14.5,5.1,17.8,12.8,17.8,12.8s1-8.7-12.4-17.6
				C197,251.9,181.8,248.9,180.5,241.7z"/>
			<path class="st4" d="M264.7,261.1c0,0-3.4,14.3,7,25.6c10.3,11.2,9.8,19.4,9.8,19.4s5.2-7.2-2.8-21.5
				C274.5,277.5,262.6,267.8,264.7,261.1z"/>
			<path class="st4" d="M291.6,238.4c0,0-8.5,12-2.8,26.3c5.7,14.3,1.8,21.7,1.8,21.7s7.5-4.9,5.2-21
				C294.9,257.3,287.2,244,291.6,238.4z"/>
			<path class="st4" d="M215.4,228.4c0,0,1.5,14.6,15.2,21.7c13.7,7.2,15.8,15.1,15.8,15.1s2.3-8.4-9.8-19.2
				C230.4,240.7,215.6,235.6,215.4,228.4z"/>
			<path class="st4" d="M224.9,266.5c0,0,2.8,14.3,17,20.5c14.2,5.9,17,13.8,17,13.8s1.5-8.9-11.4-18.4
				C241,277.5,226,273.4,224.9,266.5z"/>
		</g>
	</g>
</g>
<g>
	<defs>
		<polygon id="SVGID_00000000206455405465353000000002368022999613268099_" points="148.3,-290.6 349.8,338.4 148.3,967.4 
			-382.4,967.4 -382.4,-290.6 		"/>
	</defs>
	<clipPath id="SVGID_00000070841158772537301300000016271798255883333523_">
		<use xlink:href="#SVGID_00000000206455405465353000000002368022999613268099_"  style="overflow:visible;"/>
	</clipPath>
	<g style="clip-path:url(#SVGID_00000070841158772537301300000016271798255883333523_);">
		<path class="st6" d="M451.1,301.7c0,61.6-40.1,146.7-88.5,193.3c-21.5,20.7-44.6,33.7-66.6,33.7c-13.9,0-27.8-2.2-39.8-5.8
			c-16.4-5-33.8-5-50.1,0c-11.9,3.6-25.8,5.8-39.8,5.8c-23.1,0-47.4-14.3-69.7-36.7c-47-47.1-85.4-129.9-85.4-190.2
			c0-88.9,53.2-142.7,103.2-155.7c24-6.2,51.8-2.2,74.2,3.6c23.2,6.1,47.4,7.1,70.9,3c4.7-0.8,9.5-1.8,14.1-3
			c22.5-5.8,50.3-9.8,74.2-3.6C397.9,159,451.1,212.7,451.1,301.7z"/>
		<path class="st7" d="M362.6,494.9c-59.4,10.5-105.2,7.6-139.7-0.8c-56.3-13.6-98.2-61.2-105.2-118.7
			c-17.5-144.1,76.7-186.1,76.7-186.1c27.6,12.5,58.6,5.8,58.6,5.8c-19.8-19.8,6.6-42.6,6.6-42.6c-23.5,4-47.7,3-70.9-3
			c-22.5-5.8-50.3-9.8-74.2-3.6c-50,13-103.2,66.7-103.2,155.7c0,88.9,83.5,226.9,155.1,226.9c13.9,0,27.8-2.2,39.8-5.8
			c16.4-5,33.8-5,50.1,0c11.9,3.6,25.8,5.8,39.8,5.8C317.9,528.6,341.1,515.6,362.6,494.9C362.6,494.9,362.6,494.9,362.6,494.9z"/>
		
			<ellipse transform="matrix(0.9951 -9.889974e-02 9.889974e-02 0.9951 -24.2541 38.8514)" class="st8" cx="379.7" cy="264.1" rx="28.8" ry="44.5"/>
		<path class="st7" d="M277.2,183c0,10.1-15.9,18.5-37,20.5c-2.9,0.3-6,0.4-9.1,0.4c-3.2,0-6.4-0.1-9.5-0.4
			c-20.9-2-36.6-10.4-36.6-20.4H277.2z"/>
	</g>
</g>
<path class="st9" d="M472.6,22.1c0,0-12.4,86.1-77.4,111.2c-62.2,24-117.6-40.8-140.4-35.7c-1,0.2-2,0.6-2.9,1.1c0,0,0,0,0,0l0,0
	c0.8-2.3,25.7-76.6,89.8-81.5C406.7,12.2,442.1,41.9,472.6,22.1z"/>
<path class="st10" d="M472.6,22.1c0,0-39.5,48.2-95.1,48.2c-48.9,0-108.9,22-122.7,27.3c-1.7,0.6-2.6,1-2.9,1.1c0,0,0,0,0,0l0,0
	c0.8-2.3,25.7-76.6,89.8-81.5C406.7,12.2,442.1,41.9,472.6,22.1z"/>
<path class="st11" d="M266.2,97.6l-33.8,51.3c2.5,10.4,4.7,21.9,6.1,34.1c0.8,6.6,1.3,13.4,1.6,20.5c-2.9,0.3-6,0.4-9.1,0.4
	c-3.2,0-6.4-0.1-9.5-0.4c-0.3-7-0.9-13.8-1.7-20.4c-6.1-48-24.6-83.3-24.8-83.7c-2.4-4.5-0.7-10.1,3.8-12.5
	c4.5-2.4,10.1-0.7,12.5,3.8c0.5,1,7.4,14,14.2,34.8l25-38c2.8-4.3,8.6-5.4,12.8-2.6C267.9,87.6,269.1,93.3,266.2,97.6z"/>
<rect x="23.9" y="279.3" class="st12" width="337" height="76.9"/>
<text transform="matrix(1 0 0 1 66.1622 354.2068)" class="st13 st14 st15">apple</text>
<rect x="336.8" y="279.3" class="st12" width="149.6" height="76.9"/>
<text transform="matrix(1 0 0 1 365.9002 354.2068)" class="st16 st14 st15">fy</text>
</svg>
